HIERARCHY
ROOT Hips
{
	OFFSET -0.001795 -0.223333 0.028219
	CHANNELS 6 Xposition Yposition Zposition Zrotation Yrotation Xrotation 
	JOINT LeftUpLeg
	{
		OFFSET 0.069520 -0.091406 -0.006815
		CHANNELS 3 Zrotation Yrotation Xrotation
		JOINT LeftLeg
		{
			OFFSET 0.034277 -0.375199 -0.004496
			CHANNELS 3 Zrotation Yrotation Xrotation
			JOINT LeftFoot
			{
				OFFSET -0.013596 -0.397961 -0.043693
				CHANNELS 3 Zrotation Yrotation Xrotation
				JOINT LeftToe
				{
					OFFSET 0.026358 -0.055791 0.119288
					CHANNELS 3 Zrotation Yrotation Xrotation
					End Site
					{
						OFFSET 0.000000 0.000000 0.000000
					}
				}
			}
		}
	}
	JOINT RightUpLeg
	{
		OFFSET -0.067670 -0.090522 -0.004320
		CHANNELS 3 Zrotation Yrotation Xrotation
		JOINT RightLeg
		{
			OFFSET -0.038290 -0.382569 -0.008850
			CHANNELS 3 Zrotation Yrotation Xrotation
			JOINT RightFoot
			{
				OFFSET 0.015774 -0.398415 -0.042312
				CHANNELS 3 Zrotation Yrotation Xrotation
				JOINT RightToe
				{
					OFFSET -0.025372 -0.048144 0.123348
					CHANNELS 3 Zrotation Yrotation Xrotation
					End Site
					{
						OFFSET 0.000000 0.000000 0.000000
					}
				}
			}
		}
	}
	JOINT Spine
	{
		OFFSET -0.002533 0.108963 -0.026696
		CHANNELS 3 Zrotation Yrotation Xrotation
		JOINT Spine1
		{
			OFFSET 0.005487 0.135180 0.001092
			CHANNELS 3 Zrotation Yrotation Xrotation
			JOINT Spine2
			{
				OFFSET 0.001457 0.052922 0.025425
				CHANNELS 3 Zrotation Yrotation Xrotation
				JOINT Neck
				{
					OFFSET -0.002778 0.213870 -0.042857
					CHANNELS 3 Zrotation Yrotation Xrotation
					JOINT Head
					{
						OFFSET 0.005152 0.064970 0.051349
						CHANNELS 3 Zrotation Yrotation Xrotation
						End Site
						{
							OFFSET 0.000000 0.000000 0.000000
						}
					}
				}
				JOINT LeftShoulder
				{
					OFFSET 0.078845 0.121749 -0.034090
					CHANNELS 3 Zrotation Yrotation Xrotation
					JOINT LeftArm
					{
						OFFSET 0.090977 0.030469 -0.008868
						CHANNELS 3 Zrotation Yrotation Xrotation
						JOINT LeftForeArm
						{
							OFFSET 0.259612 -0.012772 -0.027456
							CHANNELS 3 Zrotation Yrotation Xrotation
							JOINT LeftHand
							{
								OFFSET 0.249234 0.008986 -0.001171
								CHANNELS 3 Zrotation Yrotation Xrotation
								End Site
								{
									OFFSET 0.000000 0.000000 0.000000
								}
							}
						}
					}
				}
				JOINT RightShoulder
				{
					OFFSET -0.081759 0.118833 -0.038615
					CHANNELS 3 Zrotation Yrotation Xrotation
					JOINT RightArm
					{
						OFFSET -0.096012 0.032551 -0.009143
						CHANNELS 3 Zrotation Yrotation Xrotation
						JOINT RightForeArm
						{
							OFFSET -0.253742 -0.013329 -0.021401
							CHANNELS 3 Zrotation Yrotation Xrotation
							JOINT RightHand
							{
								OFFSET -0.255298 0.007772 -0.005559
								CHANNELS 3 Zrotation Yrotation Xrotation
								End Site
								{
									OFFSET 0.000000 0.000000 0.000000
								}
							}
						}
					}
				}
			}
		}
	}
}
MOTION
Frames: 12
Frame Time: 0.050000
0.000000 0.949474 0.000000 -0.749809 -0.080919 -0.210419 1.671411 0.249593 3.507721 0.033424 0.148641 -4.440862 -1.736081 0.664628 9.186752 0.000000 0.000000 0.000000 -0.850203 -0.068376 0.945523 -2.683090 0.230501 -0.867141 -4.466900 -14.641272 22.145916 0.000000 0.000000 0.000000 5.395166 -0.010290 -0.336658 -1.552148 0.694126 4.758407 -3.847754 3.097367 -0.498033 9.058607 -4.721872 -11.310843 0.000000 0.000000 0.000000 -28.972710 -12.067790 3.002450 -43.141529 0.833954 -4.424761 -8.041437 -28.477865 2.855843 0.000000 0.000000 0.000000 27.343124 5.732964 2.316076 48.261903 3.569415 -3.275950 10.200227 31.000651 3.884610 0.000000 0.000000 0.000000 
-0.000237 0.948151 0.001101 -0.915650 -0.617987 0.189192 2.104959 0.234664 3.523824 -0.474722 0.201457 -4.977689 -1.442081 1.021449 8.927206 0.000000 0.000000 0.000000 -0.773311 0.007667 0.122504 -2.531292 0.256183 -0.164146 -4.322510 -14.439398 21.504028 0.000000 0.000000 0.000000 6.061320 0.035833 -0.929449 -2.169480 1.032186 5.299388 -4.372677 3.860771 -0.631130 11.066638 -5.684773 -12.699150 0.000000 0.000000 0.000000 -29.118372 -12.613128 3.067710 -43.519955 1.547563 -4.610666 -6.855271 -28.682171 2.538439 0.000000 0.000000 0.000000 27.899740 5.121429 2.180631 48.849393 3.854085 -3.282519 9.313328 29.800848 3.534058 0.000000 0.000000 0.000000 
-0.000487 0.947938 0.001968 -0.692058 -0.564574 0.289757 1.919242 0.227598 3.334026 -0.547789 0.199684 -4.752989 -1.451622 0.984501 8.868618 0.000000 0.000000 0.000000 -0.973411 0.010087 0.154272 -2.580725 0.252786 -0.301707 -4.379854 -14.503817 21.372895 0.000000 0.000000 0.000000 6.447173 0.047995 -1.077054 -2.146780 1.021814 3.731930 -4.974063 3.806004 0.877991 10.334820 -5.238450 -12.847835 0.000000 0.000000 0.000000 -28.372448 -12.757654 3.254248 -43.627091 1.601028 -4.787006 -7.905058 -27.115287 2.668899 0.000000 0.000000 0.000000 28.705542 5.934737 2.815342 47.661172 3.700513 -3.439139 9.570222 30.123339 3.651428 0.000000 0.000000 0.000000 
-0.000830 0.947808 0.002824 -0.795857 -0.576472 0.264625 2.251989 0.234513 3.615751 -0.893660 0.232503 -5.093387 -1.482697 0.944131 8.906095 0.000000 0.000000 0.000000 -0.872209 0.013005 0.093323 -2.516844 0.262360 -0.041314 -4.391819 -14.514637 21.300685 0.000000 0.000000 0.000000 6.488130 0.072962 -1.325599 -1.960631 0.921446 4.630529 -4.926319 3.631472 0.227911 10.464893 -5.221566 -13.233489 0.000000 0.000000 0.000000 -28.724843 -12.725602 3.249801 -43.788336 2.356533 -5.023169 -6.945522 -27.674253 2.491141 0.000000 0.000000 0.000000 28.646836 6.232175 2.922234 47.339883 3.408570 -3.449182 9.338127 29.749366 3.518007 0.000000 0.000000 0.000000 
-0.001274 0.948033 0.003529 -0.800891 -0.871137 0.085220 1.922135 0.269565 3.849809 -0.290557 0.190393 -5.009619 -1.319700 1.198919 8.895446 0.000000 0.000000 0.000000 -0.864492 -0.014893 0.395974 -2.516082 0.249919 -0.224051 -4.208019 -14.284428 21.281044 0.000000 0.000000 0.000000 6.685901 0.075399 -1.291075 -1.878325 0.882318 5.067460 -4.947498 3.323813 0.009036 10.584292 -5.432235 -12.725268 0.000000 0.000000 0.000000 -28.754170 -12.936502 3.561406 -44.167590 2.781024 -5.261646 -7.308225 -27.244654 2.560777 0.000000 0.000000 0.000000 28.398522 6.472227 2.885535 46.881387 3.420922 -3.338521 9.712491 29.795249 3.586281 0.000000 0.000000 0.000000 
-0.001713 0.948083 0.004180 -0.953067 -0.909523 -0.069308 1.994866 0.288892 4.137193 -0.071503 0.179736 -5.126176 -1.297082 1.227651 8.869994 0.000000 0.000000 0.000000 -0.728429 -0.029102 0.504648 -2.414309 0.250490 -0.043744 -4.179837 -14.246482 21.278150 0.000000 0.000000 0.000000 6.783387 0.057166 -1.070456 -1.766219 0.823248 5.059611 -4.797529 3.068900 0.110248 10.160802 -5.104952 -13.107977 0.000000 0.000000 0.000000 -28.716788 -12.825298 3.623092 -44.715927 2.973870 -5.457180 -6.935172 -27.414386 2.500453 0.000000 0.000000 0.000000 28.569670 7.067567 3.166695 46.457010 3.347256 -3.319439 9.665698 29.311562 3.486155 0.000000 0.000000 0.000000 
-0.002089 0.948422 0.004634 -0.918963 -1.137032 -0.252299 1.949953 0.302585 4.251797 -0.046634 0.169480 -4.868281 -1.199545 1.393053 8.908583 0.000000 0.000000 0.000000 -0.755158 -0.041058 0.643688 -2.423358 0.257081 0.062415 -4.046338 -14.080742 21.273086 0.000000 0.000000 0.000000 6.878182 0.044205 -0.887860 -1.802062 0.848307 5.143968 -4.839341 3.051415 0.339022 10.424862 -5.239426 -13.361374 0.000000 0.000000 0.000000 -28.445475 -12.692419 3.600576 -44.909903 3.025426 -5.542811 -6.935161 -27.566603 2.519799 0.000000 0.000000 0.000000 28.332683 7.045750 3.107863 46.211110 3.563534 -3.229479 9.568313 29.046072 3.423279 0.000000 0.000000 0.000000 
-0.002345 0.948512 0.005046 -0.945868 -1.420752 -0.349159 1.952438 0.301972 4.207497 -0.014957 0.154017 -4.482525 -1.035618 1.619976 8.816613 0.000000 0.000000 0.000000 -0.653007 -0.057434 0.789935 -2.567279 0.265389 -0.030396 -3.887882 -13.883793 21.233019 0.000000 0.000000 0.000000 6.889925 0.037230 -0.787327 -1.836975 0.873175 5.072325 -4.715162 3.079745 0.592023 10.252522 -5.136696 -13.447350 0.000000 0.000000 0.000000 -28.395719 -12.438468 3.514079 -45.005976 2.976437 -5.585047 -7.008042 -27.873853 2.575206 0.000000 0.000000 0.000000 27.872988 7.205772 3.151431 45.977852 3.735113 -3.152707 9.782739 28.342581 3.371170 0.000000 0.000000 0.000000 
-0.002472 0.948755 0.005406 -0.952994 -1.521466 -0.435705 1.937270 0.312818 4.322851 0.026499 0.150017 -4.453677 -1.002898 1.690868 8.876463 0.000000 0.000000 0.000000 -0.635911 -0.071547 0.936304 -2.586343 0.262203 -0.107093 -3.812690 -13.793966 21.287166 0.000000 0.000000 0.000000 6.896904 0.024551 -0.639096 -1.773226 0.841322 5.101018 -4.652030 3.096040 0.537901 10.468303 -5.286115 -13.399638 0.000000 0.000000 0.000000 -28.429425 -12.304762 3.440492 -45.059400 3.022676 -5.610064 -6.919529 -28.062542 2.571307 0.000000 0.000000 0.000000 27.433317 7.196707 3.115944 45.746207 3.607501 -3.168239 10.159592 27.694266 3.366192 0.000000 0.000000 0.000000 
-0.002568 0.948936 0.005694 -0.939325 -1.747299 -0.603528 1.747646 0.343302 4.563882 0.314250 0.129539 -4.470379 -0.902866 1.865845 8.929109 0.000000 0.000000 0.000000 -0.543656 -0.098884 1.198264 -2.804516 0.273266 -0.270010 -3.676446 -13.625007 21.290432 0.000000 0.000000 0.000000 6.959118 0.009072 -0.438831 -1.893521 0.911947 5.041107 -4.497967 3.104004 0.674878 10.371445 -5.160770 -13.783384 0.000000 0.000000 0.000000 -28.474449 -11.975855 3.287577 -45.236021 2.911775 -5.624626 -7.041758 -28.598393 2.657034 0.000000 0.000000 0.000000 27.080932 7.338388 3.151734 45.521958 3.493131 -3.187664 10.065634 26.951328 3.235638 0.000000 0.000000 0.000000 
-0.002668 0.948895 0.005903 -0.940945 -1.976774 -0.606409 1.863822 0.343931 4.614273 0.084679 0.146598 -4.472892 -0.808465 2.013266 8.938086 0.000000 0.000000 0.000000 -0.598937 -0.102876 1.268070 -2.726933 0.254643 -0.420136 -3.549384 -13.461128 21.223702 0.000000 0.000000 0.000000 6.949052 0.019940 -0.534666 -1.932848 0.938601 5.208774 -4.568575 3.238342 0.541432 10.460749 -5.233470 -13.662234 0.000000 0.000000 0.000000 -28.463545 -11.875805 3.195929 -45.274072 2.874923 -5.600805 -6.866149 -28.772880 2.623717 0.000000 0.000000 0.000000 27.021481 7.204562 3.077150 45.386458 3.340477 -3.227217 10.302066 26.170074 3.179861 0.000000 0.000000 0.000000 
-0.002828 0.948763 0.006069 -0.946128 -2.260389 -0.723228 1.851080 0.352449 4.675000 0.089377 0.138623 -4.262197 -0.651637 2.228023 8.841469 0.000000 0.000000 0.000000 -0.418242 -0.122286 1.409255 -3.065706 0.282617 -0.491924 -3.412914 -13.287244 21.115629 0.000000 0.000000 0.000000 6.960161 0.027150 -0.568506 -1.968220 0.965142 5.523717 -4.496987 3.298311 0.287784 10.361217 -5.245037 -13.292677 0.000000 0.000000 0.000000 -28.556410 -11.445489 2.936280 -45.084111 2.757460 -5.523305 -7.122302 -29.004764 2.711360 0.000000 0.000000 0.000000 27.048753 6.955061 2.870031 45.101547 3.122317 -3.255064 10.444949 25.481828 3.106065 0.000000 0.000000 0.000000 
